<svg width="6" height="6" viewBox="0 0 6 6" fill="none" xmlns="http://www.w3.org/2000/svg">
<path d="M5.92159 5.14987C5.97177 5.17661 6 5.21301 6 5.25098C6 5.28895 5.97177 5.32535 5.92159 5.35209L5.35965 5.65398C5.31155 5.68152 5.24439 5.69714 5.17411 5.69714C5.10382 5.69714 5.03666 5.68152 4.98856 5.65398L0.116629 3.0366C0.0420431 2.99658 9.26277e-05 2.94228 -4.60194e-07 2.88565L-4.72315e-07 2.8116C9.2597e-05 2.75497 0.0420431 2.70067 0.116629 2.66065L4.98856 0.0432704C5.03666 0.0157359 5.10382 0.000116517 5.1741 0.000116514C5.24439 0.000116511 5.31155 0.0157359 5.35965 0.0432704L5.92159 0.345166C5.97177 0.371905 6 0.408303 6 0.446273C6 0.484243 5.97177 0.520641 5.92159 0.54738L1.63811 2.84863L5.92159 5.14987Z" fill="#898989"/>
</svg>
