<svg width="65" height="244" viewBox="0 0 65 244" fill="none" xmlns="http://www.w3.org/2000/svg">
<g filter="url(#filter0_d_4502_37)">
<path d="M48.3342 8.5455H33.6675V0.712125C33.6675 0.523258 33.5271 0.342126 33.277 0.208577C33.027 0.0750274 32.6878 0 32.3342 0C31.9806 0 31.6414 0.0750274 31.3914 0.208577C31.1413 0.342126 31.0009 0.523258 31.0009 0.712125V8.5455H16.3342C15.9806 8.5455 15.6414 8.62053 15.3914 8.75408C15.1413 8.88762 15.0009 9.06876 15.0009 9.25762C14.9943 9.35017 15.0249 9.4424 15.0907 9.5281C15.1565 9.61379 15.256 9.69095 15.3823 9.75439C15.5087 9.81782 15.659 9.86605 15.8232 9.89583C15.9874 9.92561 16.1617 9.93625 16.3342 9.92702H31.0009V17.8031C31.0009 17.992 31.1413 18.1731 31.3914 18.3067C31.6414 18.4402 31.9806 18.5152 32.3342 18.5152C32.6878 18.5152 33.027 18.4402 33.277 18.3067C33.5271 18.1731 33.6675 17.992 33.6675 17.8031V9.96975H48.3342C48.6878 9.96975 49.027 9.89472 49.277 9.76117C49.5271 9.62762 49.6675 9.44649 49.6675 9.25762C49.6675 9.06876 49.5271 8.88762 49.277 8.75408C49.027 8.62053 48.6878 8.5455 48.3342 8.5455Z" fill="white"/>
<g filter="url(#filter1_d_4502_37)">
<rect y="178.326" width="65" height="65" rx="32.5" fill="#EC7160"/>
<path d="M48.3342 209.326H33.6675V194.659C33.6675 194.306 33.5271 193.967 33.277 193.716C33.027 193.466 32.6878 193.326 32.3342 193.326C31.9806 193.326 31.6414 193.466 31.3914 193.716C31.1413 193.967 31.0009 194.306 31.0009 194.659V209.326H16.3342C15.9806 209.326 15.6414 209.466 15.3914 209.716C15.1413 209.966 15.0009 210.306 15.0009 210.659C14.9943 210.833 15.0249 211.005 15.0907 211.166C15.1565 211.326 15.256 211.471 15.3823 211.589C15.5087 211.708 15.659 211.798 15.8232 211.854C15.9874 211.91 16.1617 211.93 16.3342 211.913H31.0009V226.659C31.0009 227.013 31.1413 227.352 31.3914 227.602C31.6414 227.852 31.9806 227.993 32.3342 227.993C32.6878 227.993 33.027 227.852 33.277 227.602C33.5271 227.352 33.6675 227.013 33.6675 226.659V211.993H48.3342C48.6878 211.993 49.027 211.852 49.277 211.602C49.5271 211.352 49.6675 211.013 49.6675 210.659C49.6675 210.306 49.5271 209.966 49.277 209.716C49.027 209.466 48.6878 209.326 48.3342 209.326Z" fill="white"/>
</g>
</g>
<defs>
<filter id="filter0_d_4502_37" x="-25" y="-16" width="115" height="293.326" filterUnits="userSpaceOnUse" color-interpolation-filters="sRGB">
<feFlood flood-opacity="0" result="BackgroundImageFix"/>
<feColorMatrix in="SourceAlpha" type="matrix" values="0 0 0 0 0 0 0 0 0 0 0 0 0 0 0 0 0 0 127 0" result="hardAlpha"/>
<feOffset dy="9"/>
<feGaussianBlur stdDeviation="12.5"/>
<feComposite in2="hardAlpha" operator="out"/>
<feColorMatrix type="matrix" values="0 0 0 0 0.92549 0 0 0 0 0.443137 0 0 0 0 0.376471 0 0 0 0.26 0"/>
<feBlend mode="normal" in2="BackgroundImageFix" result="effect1_dropShadow_4502_37"/>
<feBlend mode="normal" in="SourceGraphic" in2="effect1_dropShadow_4502_37" result="shape"/>
</filter>
<filter id="filter1_d_4502_37" x="-25" y="162.326" width="115" height="115" filterUnits="userSpaceOnUse" color-interpolation-filters="sRGB">
<feFlood flood-opacity="0" result="BackgroundImageFix"/>
<feColorMatrix in="SourceAlpha" type="matrix" values="0 0 0 0 0 0 0 0 0 0 0 0 0 0 0 0 0 0 127 0" result="hardAlpha"/>
<feOffset dy="9"/>
<feGaussianBlur stdDeviation="12.5"/>
<feComposite in2="hardAlpha" operator="out"/>
<feColorMatrix type="matrix" values="0 0 0 0 0.92549 0 0 0 0 0.443137 0 0 0 0 0.376471 0 0 0 0.26 0"/>
<feBlend mode="normal" in2="BackgroundImageFix" result="effect1_dropShadow_4502_37"/>
<feBlend mode="normal" in="SourceGraphic" in2="effect1_dropShadow_4502_37" result="shape"/>
</filter>
</defs>
</svg>
